PathFileType	4	(X/Y/Z)	c:/Users/goper/Files/vsCode/490R/osim_files/C08/C08_SSWS_04.trc
DataRate	CameraRate	NumFrames	NumMarkers	Units                	OrigDataRate	OrigDataStartFrame	OrigNumFrames
250.00	250.00	8	36	mm	250.0	3837	4384
                Frame#	Time	LPSIS			LASIS			LTH1			LTH2			LTH3			LTH4			LLFE			LMFE			LSH1			LSH2			LSH3			LSH4			LLMAL			LMMAL			LCAL			LMTP5			LTOE			LMTP1			RPSIS			RASIS			RTH1			RTH2			RTH3			RTH4			RLFE			RMFE			RSH1			RSH2			RSH3			RSH4			RLMAL			RMMAL			RCAL			RMTP1			RTOE			RMTP5		
		X1	Y1	Z1	X2	Y2	Z2	X3	Y3	Z3	X4	Y4	Z4	X5	Y5	Z5	X6	Y6	Z6	X7	Y7	Z7	X8	Y8	Z8	X9	Y9	Z9	X10	Y10	Z10	X11	Y11	Z11	X12	Y12	Z12	X13	Y13	Z13	X14	Y14	Z14	X15	Y15	Z15	X16	Y16	Z16	X17	Y17	Z17	X18	Y18	Z18	X19	Y19	Z19	X20	Y20	Z20	X21	Y21	Z21	X22	Y22	Z22	X23	Y23	Z23	X24	Y24	Z24	X25	Y25	Z25	X26	Y26	Z26	X27	Y27	Z27	X28	Y28	Z28	X29	Y29	Z29	X30	Y30	Z30	X31	Y31	Z31	X32	Y32	Z32	X33	Y33	Z33	X34	Y34	Z34	X35	Y35	Z35	X36	Y36	Z36

3837	15.34400	-2633.97656	1057.14648	215.37631	-2841.22192	1022.17474	296.37216	-2826.82642	747.18903	382.59030	-2857.91382	674.99658	375.05658	-2882.70190	602.96265	367.21619	-2931.05713	705.93048	361.24722	-2894.12695	558.70148	362.37665	-2921.85449	549.96777	234.45682	-2803.83154	485.60785	363.64340	-2784.84619	443.70105	366.36240	-2854.42871	452.75208	369.29382	-2830.06787	417.33923	370.48743	-2646.96606	203.40413	310.81552	-2682.80005	193.08646	229.84285	-2585.85547	216.54230	247.40735	-2705.14648	89.90612	352.73819	-2776.19263	80.95798	304.81769	-2742.46997	73.85929	248.06592	-2636.64233	1056.21191	155.30569	-2831.14600	1022.12976	61.76948	-2760.91040	755.49609	9.03373	-2761.71460	676.92780	28.83627	-2758.60889	598.10486	39.03671	-2834.90430	681.07812	55.21843	-2758.74634	526.34399	58.22133	-2761.59229	522.30847	184.30830	-2699.29590	445.24921	43.93063	-2702.98584	400.59451	38.91468	-2759.86646	442.54959	51.18131	-2756.96167	398.59497	46.48495	-2682.99268	99.75381	106.39138	-2718.83032	106.48454	190.93842	-2629.67090	79.76573	178.01030	-2845.45117	45.91589	172.67790	-2861.74658	65.08583	118.13445	-2804.23438	46.58543	60.31538
3838	15.34800	-2637.99829	1057.38782	215.46393	-2845.51782	1022.51324	295.96820	-2832.70728	747.90607	382.49887	-2864.15894	675.82330	374.82126	-2889.17188	603.93994	366.60626	-2936.98560	707.15015	360.37747	-2900.85132	559.71252	361.74969	-2927.54980	550.98480	233.77173	-2811.09009	484.88834	363.13937	-2792.91162	442.60202	365.92422	-2862.25903	452.95807	368.66479	-2838.49976	417.02170	370.03610	-2659.23975	199.72041	310.84042	-2695.07007	190.03702	229.84152	-2598.72949	211.08043	247.80896	-2719.59692	87.56317	352.90012	-2791.18677	80.15437	305.13309	-2756.40405	71.47784	248.67247	-2639.73584	1056.68958	155.21437	-2835.75488	1022.34131	61.71953	-2763.99414	755.23065	10.09680	-2763.04688	676.23267	29.27567	-2760.14648	598.09583	39.10261	-2836.93506	680.65448	55.26836	-2759.89502	526.33551	58.25919	0.00000	0.00000	0.00000	-2700.25757	445.46552	44.03705	-2703.74292	400.78687	39.02356	-2760.75928	442.59982	51.25542	-2757.15698	398.55814	46.46344	-2683.10889	99.84577	106.45697	-2718.96143	106.53906	191.03526	-2629.72852	79.95728	177.98059	-2845.50073	45.86972	172.64171	-2861.78662	65.00140	118.10111	-2804.80591	46.52368	60.34178
3839	15.35200	-2642.07300	1057.59595	215.59840	-2849.69702	1022.72876	295.56946	-2838.47021	748.55560	382.40063	-2870.22339	676.58344	374.55130	-2896.00757	604.86328	366.05365	-2942.77588	708.28333	359.46628	-2907.39722	560.64960	361.07574	-2933.21313	551.99048	233.04349	-2818.29712	484.06409	362.60172	-2800.91650	441.43869	365.52411	-2870.19653	453.06577	367.85788	-2843.91040	415.02621	366.84070	-2671.23755	196.16548	311.05811	-2707.50269	186.94855	229.89877	-2610.77344	205.99786	247.87921	-2734.33936	85.22857	353.12595	-2806.17456	79.26437	305.44037	-2770.94775	69.48369	248.97136	-2644.23560	1056.70337	155.51147	-2838.91577	1021.88995	61.53363	-2766.49780	755.24567	10.16973	-2765.76440	676.84283	28.88271	-2761.77734	598.18353	39.19372	-2839.02002	680.27032	55.32087	-2761.14990	526.29950	58.31057	0.00000	0.00000	0.00000	-2701.13477	445.64450	44.18316	-2704.46313	400.99152	39.16164	-2761.73584	442.62326	51.31522	-2758.50220	398.61057	46.63050	-2683.15356	99.85201	106.61372	-2719.12549	106.60892	191.12221	-2629.90576	80.15612	177.88350	-2845.54175	45.84060	172.61234	-2861.83301	64.90185	118.09285	-2804.22974	46.53756	60.26297
3840	15.35600	-2646.07764	1057.76904	215.75061	-2853.85840	1022.91870	295.22977	-2844.26001	749.18964	382.30701	-2876.23193	677.30359	374.29968	-2901.97754	605.79846	365.31927	-2948.49634	709.32623	358.56766	-2913.77710	561.45361	360.36700	-2938.69360	552.85620	232.30690	-2825.42383	483.20670	362.06491	-2808.79517	440.28851	365.11993	-2877.77905	453.23724	367.77173	-2855.24756	416.40753	369.17340	-2683.64526	192.44044	311.08398	-2719.99561	183.78603	229.99251	-2622.88086	200.82832	247.96336	-2749.24316	83.05910	353.43988	-2821.08057	78.35706	305.74564	-2786.57959	68.11365	249.37868	-2648.15820	1056.90198	155.63371	-2842.66772	1021.70648	61.43551	-2768.99219	755.24658	10.24763	-2767.24707	676.18262	29.32752	-2763.52051	598.17822	39.26044	-2841.15259	679.86505	55.35285	-2762.38965	526.26843	58.35867	-2765.43359	522.10925	184.63332	-2703.96533	446.64612	43.39468	-2705.39038	401.20929	39.28313	-2762.67065	442.64297	51.39497	-2758.82812	398.59756	46.63108	-2683.19336	99.83012	106.78544	-2719.22681	106.65205	191.19997	-2629.93823	80.33292	177.90619	-2845.57910	45.79622	172.59024	-2861.87646	64.80241	118.06773	-2804.22583	46.51595	60.22164
3841	15.36000	-2650.13428	1057.91357	215.92896	-2858.09985	1023.05005	294.97720	-2849.94092	749.74792	382.21100	-2882.15552	677.97485	374.04468	-2908.53394	606.53650	364.81009	-2954.18140	710.32178	357.65891	-2920.19873	562.35236	359.68942	-2944.11084	553.68781	231.57872	-2832.44019	482.28793	361.56476	-2816.62793	438.96637	364.65900	-2885.37891	453.25171	366.82935	-2863.44189	416.01883	368.75620	-2696.24854	188.63336	311.10321	-2732.61987	180.57597	230.09157	-2636.72095	194.84743	248.25674	-2764.18457	80.79599	353.80301	-2836.28516	77.61825	306.15201	-2801.89600	66.50895	249.80002	-2652.08057	1057.07153	155.82396	-2846.39062	1021.45996	61.32088	-2771.53101	755.18048	10.28333	-2770.00317	676.71814	28.93769	-2765.15039	598.07550	39.36410	-2843.25757	679.43671	55.40066	-2763.66553	526.18243	58.44675	-2766.80322	522.04095	184.73157	-2704.47144	446.81802	43.78540	-2706.25439	401.42465	39.37349	-2763.70874	442.62872	51.48927	-2760.24243	398.66251	46.79211	-2683.26099	99.78327	106.90669	-2719.39722	106.72314	191.32050	-2629.90723	80.51437	178.02081	-2845.62280	45.77094	172.56766	-2861.91162	64.70164	118.04060	-2804.24121	46.48370	60.21687
3842	15.36400	-2654.17358	1058.04407	216.07623	-2862.27979	1023.12531	294.78461	-2855.57861	750.30334	382.07809	-2888.01099	678.62482	373.74152	-2914.24854	607.40625	364.00858	-2959.75879	711.26495	356.78568	-2926.52246	563.17584	358.99454	-2949.34253	554.30951	230.86256	-2839.38452	481.32117	361.02386	-2824.44775	437.63242	364.22385	-2892.78296	453.27802	366.27713	-2871.66968	415.56049	368.34003	-2708.81982	184.84807	311.12738	-2745.45215	177.33250	230.20737	-2648.57739	189.70578	248.34042	-2779.20581	78.63506	354.11148	-2851.40088	76.90595	306.62506	-2817.23120	64.95054	250.24869	-2655.55298	1057.25098	155.83818	-2850.17651	1021.20331	61.21745	-2774.11108	755.11871	10.29175	-2771.59424	676.08093	29.43168	-2767.79565	598.83044	39.49648	-2845.46924	679.03540	55.44763	-2765.03760	526.11346	58.55102	-2768.29126	522.00287	184.87547	-2704.47144	446.31552	44.78526	-2706.90137	401.83353	39.48982	-2765.45044	441.32526	50.33978	-2760.67065	398.63785	46.82145	-2683.39551	99.88932	107.01162	-2719.54517	106.78769	191.39337	-2629.98950	80.68118	178.08513	-2845.67261	45.70975	172.54782	-2861.97339	64.61205	118.01923	-2804.24927	46.46481	60.18117
3843	15.36800	-2658.21484	1058.13391	216.30324	-2866.39966	1023.12445	294.61108	-2861.08911	750.76398	381.98218	-2893.77881	679.18323	373.41776	-2920.21021	608.08496	363.33023	-2965.27368	712.11615	355.89334	-2928.37622	562.12524	357.14511	-2954.50073	554.93054	230.12979	-2846.27710	480.34415	360.59882	-2832.19531	436.24033	363.90842	-2897.44507	453.49326	367.06042	-2879.88794	415.11652	367.89041	-2721.75562	180.84859	311.29044	-2758.54565	174.15425	230.56062	-2661.94800	184.14955	248.34521	-2794.23999	76.46109	354.47299	-2866.66943	76.32249	307.17484	-2832.62549	63.44178	250.74588	-2659.48535	1057.26929	156.03847	-2853.83325	1020.89355	61.08352	-2775.67041	753.88116	10.95027	-2773.77661	676.02338	29.49428	-2768.79663	598.07507	39.58950	-2847.67139	678.59631	55.50872	-2766.45630	526.05334	58.57111	-2769.82520	521.96881	184.97049	-2705.50830	446.51511	44.88979	-2707.82739	402.00931	39.58590	-2766.58716	441.36880	50.44616	-2762.16553	398.69193	47.02889	-2683.49683	99.90783	107.11147	-2719.78076	106.86398	191.47484	-2630.06689	80.81079	178.13873	-2844.33838	42.69215	172.25986	-2862.03198	64.52329	117.99102	-2804.27979	46.45547	60.15992
3844	15.37200	-2662.24121	1058.17480	216.50464	-2870.50244	1023.08899	294.52927	-2866.48706	751.07550	381.91971	-2899.47363	679.73804	373.11615	-2926.47852	608.54858	362.84805	-2970.69995	712.94617	354.96088	-2938.57397	564.51227	357.52530	-2959.63696	555.49298	229.36903	-2853.13062	479.20685	360.10812	-2836.85571	430.70621	359.10242	-2904.72095	453.41504	366.59097	-2887.96680	414.68530	367.51471	-2734.59863	176.99426	311.33276	-2771.64160	170.97888	230.58882	-2675.05737	178.58086	248.56970	-2809.34058	74.32913	354.93686	-2881.84277	75.68662	307.66812	-2847.21997	61.47917	251.21405	-2663.63818	1057.32166	156.33691	-2857.59961	1020.56921	60.95938	-2779.32056	754.99390	10.50564	-2776.02100	675.92938	29.60077	-2770.15503	597.98981	39.92076	-2849.93091	678.17633	55.56383	-2767.93311	525.96857	58.67188	-2771.34546	521.95905	185.04248	-2707.14551	447.03400	44.34563	-2708.78369	402.18774	39.76818	-2767.69434	441.35458	50.51986	-2762.61694	398.64554	47.02490	-2683.59351	99.93982	107.24021	-2721.13721	106.83889	191.27231	-2630.16284	80.91910	178.23996	-2844.51172	42.81745	172.28984	-2862.09985	64.46046	117.96247	-2804.28491	46.41435	60.14572
